<svg width="230" height="71" viewBox="0 0 230 71" fill="none" xmlns="http://www.w3.org/2000/svg">
<path fill-rule="evenodd" clip-rule="evenodd" d="M24 14H35V24.8333H46V35.6667H35V46.5V52.5807V58H34.1538C28.546 58 24 53.5228 24 48V46.5V35.6667V24.8333V14ZM35 52.5807C35 55.5372 37.4521 57.9947 40.402 57.9947C40.5609 57.9947 40.7145 57.9841 40.8734 57.9682C40.7463 57.5701 40.6774 57.1507 40.6774 56.7049C40.6774 54.4278 42.5099 52.5913 44.7766 52.5913C45.1314 52.5913 45.4651 52.6338 45.7987 52.724C45.8041 52.6762 45.8041 52.6284 45.8041 52.5807C45.8041 49.6189 43.352 47.1667 40.3967 47.1667C40.2431 47.1667 40.0949 47.1773 39.9466 47.1879C40.079 47.5754 40.1372 47.9947 40.1372 48.4352C40.1372 50.7123 38.3048 52.5488 36.038 52.5488C35.6885 52.5488 35.3337 52.5011 35.0053 52.4215C35 52.4692 35 52.5276 35 52.5807ZM13.0688 29.3716C13.3813 29.4512 13.6991 29.4936 14.038 29.4936C15.9605 29.4936 17.4169 28.034 17.4169 26.1019C17.4169 25.6985 17.3481 25.311 17.2263 24.966C15.1026 25.4437 13.4343 27.2006 13.0688 29.3716ZM18.402 35.6614C18.5609 35.6614 18.7145 35.6507 18.8734 35.6348C18.7463 35.2367 18.6774 34.8174 18.6774 34.3716C18.6774 32.0945 20.5099 30.258 22.7766 30.258C23.1314 30.258 23.4651 30.3004 23.7987 30.3907C23.8041 30.3429 23.8041 30.2951 23.8041 30.2474V30.2474C23.8041 27.2856 21.352 24.8333 18.3967 24.8333C18.2431 24.8333 18.0948 24.8439 17.9466 24.8546C18.079 25.242 18.1372 25.6614 18.1372 26.1019C18.1372 28.379 16.3048 30.2155 14.038 30.2155C13.6885 30.2155 13.3337 30.1677 13.0053 30.0881C13 30.1359 13 30.1943 13 30.2474C13 33.2038 15.4521 35.6614 18.402 35.6614ZM19.5936 35.5234C21.7068 35.035 23.3751 33.2781 23.7352 31.1125C23.428 31.0276 23.1208 30.9798 22.7766 30.9798C20.8541 30.9798 19.3977 32.4395 19.3977 34.3716C19.3977 34.7856 19.4613 35.173 19.5936 35.5234ZM36.038 51.827C35.6991 51.827 35.3813 51.7845 35.0688 51.7049C35.4343 49.534 37.1026 47.7771 39.2263 47.2994C39.3481 47.6444 39.4169 48.0319 39.4169 48.4352C39.4169 50.3673 37.9605 51.827 36.038 51.827ZM45.7352 53.4459C45.3751 55.6115 43.7068 57.3684 41.5936 57.8567C41.4613 57.5064 41.3977 57.1189 41.3977 56.7049C41.3977 54.7728 42.8541 53.3132 44.7766 53.3132C45.1208 53.3132 45.428 53.361 45.7352 53.4459Z" fill="#474EFF"/>
<path d="M58.81 50.69H53.2C51.01 50.69 50.77 49.79 50.77 48.59V28.16C50.77 26.96 51.01 26.06 53.2 26.06H58.21C60.4 26.06 60.94 26.93 60.94 28.16C60.94 29.21 60.4 30.2 58.21 30.2H55.33V36.29H56.89C59.08 36.29 59.62 37.16 59.62 38.39C59.62 39.44 59.08 40.43 56.89 40.43H55.33V46.55H58.81C61 46.55 61.54 47.54 61.54 48.59C61.54 49.82 61 50.69 58.81 50.69ZM66.4 51.44C65.26 51.44 64.27 50.84 64.27 48.8V40.43H62.83C60.64 40.43 60.22 39.56 60.22 38.33C60.22 37.25 60.67 36.29 62.83 36.29H64.27V28.31C64.27 26.3 65.29 25.7 66.4 25.7C67.48 25.7 68.5 26.3 68.5 28.31V48.8C68.5 50.84 67.51 51.44 66.4 51.44ZM72.7 51.44C71.56 51.44 70.57 50.84 70.57 48.8V28.31C70.57 26.3 71.59 25.7 72.7 25.7C73.78 25.7 74.8 26.3 74.8 28.31V48.8C74.8 50.84 73.81 51.44 72.7 51.44ZM87.6159 50.69H79.6059C77.4159 50.69 77.1759 49.79 77.1759 48.59V28.61C77.1759 26.6 78.3159 26 79.6059 26C80.8659 26 82.0359 26.54 82.0359 28.61V46.55H87.6159C89.8059 46.55 90.3459 47.54 90.3459 48.59C90.3459 49.82 89.8059 50.69 87.6159 50.69ZM97.3659 51.44C96.0159 51.44 94.9359 50.81 94.9359 48.8V28.31C94.9359 26.3 96.0759 25.7 97.3659 25.7C98.6259 25.7 99.7959 26.24 99.7959 28.31V48.8C99.7959 50.87 98.6559 51.44 97.3659 51.44ZM122.999 41.24C119.309 40.43 116.129 37.85 114.059 35.33C111.839 37.85 108.689 40.22 105.719 41.03C105.149 41.18 104.459 41.27 103.829 41.15C103.139 41 102.479 40.61 102.209 39.68C101.759 38.24 102.539 37.22 104.009 36.65C107.459 35.36 111.539 32.69 111.629 29.63V28.46C111.629 26.39 112.859 25.85 114.119 25.85C115.379 25.85 116.609 26.39 116.609 28.46V29.63C116.699 32.63 120.209 35.69 123.719 36.71C125.249 37.16 126.119 38.12 125.789 39.59C125.609 40.37 125.159 40.88 124.409 41.15C123.959 41.3 123.479 41.36 122.999 41.24ZM124.379 51.08H103.529C101.339 51.08 100.799 50.09 100.799 49.04C100.799 47.81 101.339 46.94 103.529 46.94H124.379C126.569 46.94 127.109 47.81 127.109 49.04C127.109 50.09 126.569 51.08 124.379 51.08ZM133.709 50.9C133.019 50.93 132.239 50.72 131.759 49.91C130.949 48.62 131.519 47.51 132.749 46.52C133.679 45.77 134.369 45.05 134.819 44.3C135.749 42.86 136.079 41.36 136.079 39.8V30.32H134.399C132.209 30.32 131.669 29.33 131.669 28.28C131.669 27.05 132.209 26.18 134.399 26.18H142.259C144.449 26.18 144.989 27.05 144.989 28.28C144.989 29.33 144.449 30.32 142.259 30.32H140.879V37.37C140.879 40.67 140.609 43.61 144.209 46.31C145.499 47.27 146.009 48.41 145.199 49.7C144.749 50.39 144.119 50.72 143.399 50.75C142.949 50.75 142.469 50.69 142.019 50.36C140.549 49.19 139.439 47.87 138.599 46.52C137.849 47.81 136.859 49.13 135.509 50.33C135.059 50.72 134.339 50.87 133.709 50.9ZM148.679 51.44C147.539 51.44 146.549 50.84 146.549 48.8V28.31C146.549 26.3 147.569 25.7 148.679 25.7C149.759 25.7 150.779 26.3 150.779 28.31V35.6H153.179V28.31C153.179 26.3 154.199 25.7 155.309 25.7C156.389 25.7 157.409 26.3 157.409 28.31V48.8C157.409 50.84 156.419 51.44 155.309 51.44C154.169 51.44 153.179 50.84 153.179 48.8V39.74H150.779V48.8C150.779 50.84 149.789 51.44 148.679 51.44ZM169.715 50.69H161.525C159.335 50.69 159.095 49.79 159.095 48.59V28.31C159.095 27.08 159.335 26 161.525 26H169.715C171.905 26 172.145 27.08 172.145 28.31V48.59C172.145 49.79 171.905 50.69 169.715 50.69ZM163.835 46.55H167.405V30.14H163.835V46.55ZM180.185 51.44C178.835 51.44 177.755 50.81 177.755 48.8V28.31C177.755 26.3 178.895 25.7 180.185 25.7C181.445 25.7 182.615 26.24 182.615 28.31V48.8C182.615 50.87 181.475 51.44 180.185 51.44ZM206.23 41.24C205.6 41.21 204.91 41.03 204.43 40.67C202.9 39.62 201.58 38.18 200.86 37.01C200.11 38.36 198.37 39.98 197.17 40.7C196 41.42 194.56 41.18 193.87 40.1C193.18 38.93 193.36 37.82 194.68 36.89C197.65 34.82 197.71 32.69 197.8 29.81V28.46C197.8 26.45 199.18 25.85 200.47 25.85C201.82 25.85 203.08 26.48 203.08 28.46V30.23C203.08 33.29 204.22 34.64 207.13 36.86C208.42 37.82 208.93 38.96 208.12 40.25C207.64 41.06 206.92 41.27 206.23 41.24ZM206.89 51.08H186.04C183.85 51.08 183.31 50.09 183.31 49.04C183.31 47.81 183.85 46.94 186.04 46.94H206.89C209.08 46.94 209.62 47.81 209.62 49.04C209.62 50.09 209.08 51.08 206.89 51.08ZM188.26 40.52C187.15 41.24 185.2 41.12 184.48 39.8C183.79 38.45 184.39 37.31 185.74 36.5C188.95 34.58 189.46 32.9 189.46 30.2V28.46C189.46 26.39 190.84 25.85 192.1 25.85C193.36 25.85 194.74 26.39 194.74 28.46V30.77C194.74 32.33 194.32 34.07 193.3 35.75C192.28 37.43 190.63 39.08 188.26 40.52Z" fill="#474EFF"/>
</svg>
