<svg width="20" height="20" viewBox="0 0 20 20" fill="none" xmlns="http://www.w3.org/2000/svg">
<path d="M2.05664 6.45312L2.52539 5.39844C3.60612 6.58984 4.88542 7.51758 6.36328 8.18164C7.84766 8.83919 9.41992 9.16146 11.0801 9.14844C12.3301 9.14193 13.5345 8.93685 14.6934 8.5332C15.8522 8.12305 16.9134 7.54362 17.877 6.79492L18.3457 7.75195C17.304 8.5332 16.1647 9.13216 14.9277 9.54883C13.6908 9.96549 12.4082 10.1738 11.0801 10.1738C9.92773 10.1803 8.8112 10.0404 7.73047 9.75391C6.64974 9.46094 5.6276 9.03451 4.66406 8.47461C3.70703 7.91471 2.83789 7.24089 2.05664 6.45312ZM1.11914 11.6484L1.35352 10.4766C2.51888 11.5443 3.79818 12.3939 5.19141 13.0254C6.59115 13.6504 8.03971 14.0508 9.53711 14.2266C11.0345 14.4023 12.5254 14.3438 14.0098 14.0508C15.5007 13.7578 16.9199 13.2305 18.2676 12.4688L18.2773 13.6504C16.8971 14.36 15.4551 14.8483 13.9512 15.1152C12.4473 15.3757 10.9401 15.418 9.42969 15.2422C7.91927 15.0664 6.45768 14.679 5.04492 14.0801C3.63216 13.4811 2.32357 12.6706 1.11914 11.6484ZM5.65039 17.9863C5.42904 17.3418 5.25651 16.6908 5.13281 16.0332C5.01562 15.3757 4.95052 14.7116 4.9375 14.041C4.8138 12.4329 4.93424 10.8607 5.29883 9.32422C5.66992 7.78125 6.25586 6.33594 7.05664 4.98828C7.85742 3.64062 8.85026 2.4362 10.0352 1.375L11.1289 1.78516C9.9375 2.78125 8.9349 3.93034 8.12109 5.23242C7.30729 6.52799 6.71159 7.92122 6.33398 9.41211C5.95638 10.903 5.83268 12.4362 5.96289 14.0117C5.98242 14.7539 6.06706 15.4831 6.2168 16.1992C6.37305 16.9089 6.59115 17.6055 6.87109 18.2891L5.65039 17.9863ZM11.7441 18.9238C10.8652 17.6413 10.1947 16.2578 9.73242 14.7734C9.27018 13.2891 9.03906 11.7526 9.03906 10.1641C9.03906 8.67318 9.2474 7.22135 9.66406 5.80859C10.0807 4.38932 10.6829 3.0612 11.4707 1.82422L12.4668 2.18555C11.6921 3.35091 11.0964 4.61068 10.6797 5.96484C10.2695 7.31901 10.0645 8.71875 10.0645 10.1641C10.0645 11.6745 10.2923 13.1393 10.748 14.5586C11.2038 15.9714 11.8548 17.2865 12.7012 18.5039L11.7441 18.9238ZM17.2031 15.4766C16.1029 14.8255 15.1458 14.015 14.332 13.0449C13.5247 12.0684 12.8965 10.9876 12.4473 9.80273C11.998 8.61784 11.7637 7.37435 11.7441 6.07227C11.7376 5.35612 11.793 4.65625 11.9102 3.97266C12.0273 3.28255 12.2096 2.61198 12.457 1.96094L13.4434 2.24414C13.2155 2.8431 13.043 3.46484 12.9258 4.10938C12.8151 4.75391 12.7663 5.40495 12.7793 6.0625C12.7988 7.27344 13.0202 8.42578 13.4434 9.51953C13.8665 10.6068 14.4525 11.5931 15.2012 12.4785C15.9564 13.3574 16.8451 14.0931 17.8672 14.6855L17.2031 15.4766ZM5.97266 10.0762C5.58203 10.0762 5.25 9.93945 4.97656 9.66602C4.70312 9.39258 4.56641 9.06055 4.56641 8.66992C4.56641 8.2793 4.70312 7.95052 4.97656 7.68359C5.25 7.41016 5.58203 7.27344 5.97266 7.27344C6.35677 7.27344 6.68555 7.41016 6.95898 7.68359C7.23242 7.95052 7.36914 8.2793 7.36914 8.66992C7.36914 9.06055 7.23242 9.39258 6.95898 9.66602C6.68555 9.93945 6.35677 10.0762 5.97266 10.0762ZM13.043 10.8672C12.6589 10.8672 12.3333 10.7337 12.0664 10.4668C11.7995 10.1934 11.666 9.86784 11.666 9.49023C11.666 9.11914 11.7995 8.80013 12.0664 8.5332C12.3333 8.25977 12.6589 8.12305 13.043 8.12305C13.4141 8.12305 13.7331 8.25977 14 8.5332C14.2669 8.80013 14.4004 9.11914 14.4004 9.49023C14.4004 9.86784 14.2669 10.1934 14 10.4668C13.7331 10.7337 13.4141 10.8672 13.043 10.8672ZM10.3281 16.1992C9.93099 16.1992 9.5957 16.0625 9.32227 15.7891C9.05534 15.5156 8.92188 15.1836 8.92188 14.793C8.92188 14.4089 9.05534 14.0833 9.32227 13.8164C9.5957 13.543 9.93099 13.4062 10.3281 13.4062C10.7122 13.4062 11.0378 13.543 11.3047 13.8164C11.5781 14.0833 11.7148 14.4089 11.7148 14.793C11.7148 15.1836 11.5781 15.5156 11.3047 15.7891C11.0378 16.0625 10.7122 16.1992 10.3281 16.1992ZM10.0059 19.6855C8.72331 19.6855 7.51888 19.4414 6.39258 18.9531C5.26628 18.4648 4.27344 17.791 3.41406 16.9316C2.55469 16.0723 1.8776 15.0794 1.38281 13.9531C0.894531 12.8203 0.650391 11.6126 0.650391 10.3301C0.650391 9.05404 0.894531 7.85286 1.38281 6.72656C1.87109 5.59375 2.54492 4.59766 3.4043 3.73828C4.27018 2.8724 5.26628 2.19531 6.39258 1.70703C7.51888 1.21875 8.72005 0.974609 9.99609 0.974609C11.2786 0.974609 12.4831 1.21875 13.6094 1.70703C14.7357 2.19531 15.7285 2.8724 16.5879 3.73828C17.4538 4.59766 18.1309 5.59375 18.6191 6.72656C19.1139 7.85286 19.3613 9.05404 19.3613 10.3301C19.3613 11.6126 19.1172 12.8203 18.6289 13.9531C18.1406 15.0794 17.4635 16.0723 16.5977 16.9316C15.7383 17.791 14.7454 18.4648 13.6191 18.9531C12.4928 19.4414 11.2884 19.6855 10.0059 19.6855ZM10.0059 18.5332C11.1257 18.5332 12.1803 18.3184 13.1699 17.8887C14.1595 17.4655 15.0319 16.8763 15.7871 16.1211C16.5423 15.3659 17.1348 14.4935 17.5645 13.5039C17.9941 12.5078 18.209 11.4499 18.209 10.3301C18.209 9.21029 17.9941 8.1556 17.5645 7.16602C17.1348 6.17643 16.5423 5.30404 15.7871 4.54883C15.0319 3.79362 14.1595 3.20117 13.1699 2.77148C12.1803 2.3418 11.1224 2.12695 9.99609 2.12695C8.8763 2.12695 7.82161 2.3418 6.83203 2.77148C5.84245 3.20117 4.97005 3.79362 4.21484 4.54883C3.45964 5.30404 2.86719 6.17643 2.4375 7.16602C2.01432 8.1556 1.80273 9.21029 1.80273 10.3301C1.80273 11.4499 2.01432 12.5078 2.4375 13.5039C2.86719 14.4935 3.45964 15.3659 4.21484 16.1211C4.97005 16.8763 5.84245 17.4655 6.83203 17.8887C7.82812 18.3184 8.88607 18.5332 10.0059 18.5332Z" fill="#BDBDBD"/>
</svg>
