<svg width="20" height="20" viewBox="0 0 20 20" fill="none" xmlns="http://www.w3.org/2000/svg">
<path d="M0.777344 8.82617C0.979167 7.57617 1.41862 6.42383 2.0957 5.36914C2.77279 4.31445 3.61914 3.42578 4.63477 2.70312C5.65039 1.97396 6.77018 1.47591 7.99414 1.20898C8.09831 1.50195 8.17643 1.81445 8.22852 2.14648C8.28711 2.47201 8.31641 2.80404 8.31641 3.14258C8.31641 4.26237 8.05599 5.26823 7.53516 6.16016C7.02083 7.04557 6.32096 7.7487 5.43555 8.26953C4.55013 8.78385 3.55078 9.04102 2.4375 9.04102C2.15104 9.04102 1.86784 9.02148 1.58789 8.98242C1.30794 8.94336 1.03776 8.89128 0.777344 8.82617ZM10.0059 19.6855C8.72331 19.6855 7.51888 19.4414 6.39258 18.9531C5.26628 18.4648 4.27344 17.791 3.41406 16.9316C2.55469 16.0723 1.8776 15.0794 1.38281 13.9531C0.894531 12.8203 0.650391 11.6126 0.650391 10.3301C0.650391 10.2715 0.650391 10.2129 0.650391 10.1543C0.656901 10.0892 0.660156 10.0273 0.660156 9.96875C0.946615 10.0404 1.23958 10.0957 1.53906 10.1348C1.83854 10.1673 2.13802 10.1836 2.4375 10.1836C3.41406 10.1836 4.32552 10.0046 5.17188 9.64648C6.02474 9.2819 6.77018 8.77734 7.4082 8.13281C8.05273 7.48828 8.55729 6.73958 8.92188 5.88672C9.28646 5.03385 9.46875 4.11914 9.46875 3.14258C9.46875 2.77148 9.44271 2.41016 9.39062 2.05859C9.33854 1.70052 9.25716 1.35547 9.14648 1.02344C9.28971 1.01042 9.42969 1.00065 9.56641 0.994141C9.70964 0.98112 9.85286 0.974609 9.99609 0.974609C11.2786 0.974609 12.4831 1.21875 13.6094 1.70703C14.7357 2.19531 15.7285 2.8724 16.5879 3.73828C17.4538 4.59766 18.1309 5.59375 18.6191 6.72656C19.1139 7.85286 19.3613 9.05404 19.3613 10.3301C19.3613 10.3887 19.3613 10.4473 19.3613 10.5059C19.3613 10.5579 19.3548 10.61 19.3418 10.6621C19.0618 10.584 18.7786 10.5286 18.4922 10.4961C18.2057 10.457 17.9062 10.4375 17.5938 10.4375C16.6302 10.4375 15.722 10.6198 14.8691 10.9844C14.0163 11.3424 13.2676 11.8438 12.623 12.4883C11.985 13.1328 11.4837 13.8815 11.1191 14.7344C10.7611 15.5872 10.582 16.502 10.582 17.4785C10.582 17.8561 10.6081 18.224 10.6602 18.582C10.7122 18.9401 10.7969 19.2884 10.9141 19.627C10.7578 19.6465 10.6048 19.6595 10.4551 19.666C10.3118 19.679 10.1621 19.6855 10.0059 19.6855ZM12.0566 19.4512C11.946 19.1582 11.8613 18.8424 11.8027 18.5039C11.7507 18.1719 11.7246 17.8301 11.7246 17.4785C11.7246 16.3587 11.9818 15.3561 12.4961 14.4707C13.0104 13.5788 13.7103 12.8757 14.5957 12.3613C15.4876 11.847 16.487 11.5898 17.5938 11.5898C17.8932 11.5898 18.1797 11.6094 18.4531 11.6484C18.7266 11.681 18.9902 11.7331 19.2441 11.8047C19.0423 13.0547 18.6061 14.207 17.9355 15.2617C17.265 16.3164 16.4251 17.2083 15.416 17.9375C14.4069 18.6667 13.2871 19.1712 12.0566 19.4512Z" fill="#D3D3D3"/>
</svg>
