<svg width="20" height="20" viewBox="0 0 20 20" fill="none" xmlns="http://www.w3.org/2000/svg">
<path d="M3.18555 15.7207C2.24154 15.7207 1.5319 15.4863 1.05664 15.0176C0.587891 14.5488 0.353516 13.8522 0.353516 12.9277V3.5918C0.353516 2.66081 0.587891 1.96419 1.05664 1.50195C1.5319 1.0332 2.24154 0.798828 3.18555 0.798828H12.4531C13.3841 0.798828 14.0872 1.0332 14.5625 1.50195C15.0378 1.9707 15.2754 2.66732 15.2754 3.5918V5.59375H13.9277V3.66992C13.9277 3.16862 13.7943 2.79102 13.5273 2.53711C13.2669 2.27669 12.8991 2.14648 12.4238 2.14648H3.20508C2.72331 2.14648 2.35221 2.27669 2.0918 2.53711C1.83789 2.79102 1.71094 3.16862 1.71094 3.66992V12.8594C1.71094 13.3607 1.83789 13.7383 2.0918 13.9922C2.35221 14.2461 2.72331 14.373 3.20508 14.373H5.5V15.7207H3.18555ZM7.6582 19.9004C6.71419 19.9004 6.00781 19.666 5.53906 19.1973C5.07031 18.7285 4.83594 18.0319 4.83594 17.1074V7.77148C4.83594 6.84049 5.07031 6.14388 5.53906 5.68164C6.00781 5.21289 6.71419 4.97852 7.6582 4.97852H16.9258C17.8633 4.97852 18.5664 5.21289 19.0352 5.68164C19.5104 6.15039 19.748 6.84701 19.748 7.77148V17.1074C19.748 18.0319 19.5104 18.7285 19.0352 19.1973C18.5664 19.666 17.8633 19.9004 16.9258 19.9004H7.6582ZM7.67773 18.5527H16.9062C17.3815 18.5527 17.7493 18.4225 18.0098 18.1621C18.2767 17.9082 18.4102 17.5306 18.4102 17.0293V7.83984C18.4102 7.33854 18.2767 6.96094 18.0098 6.70703C17.7493 6.45312 17.3815 6.32617 16.9062 6.32617H7.67773C7.19596 6.32617 6.82487 6.45312 6.56445 6.70703C6.30404 6.96094 6.17383 7.33854 6.17383 7.83984V17.0293C6.17383 17.5306 6.30404 17.9082 6.56445 18.1621C6.82487 18.4225 7.19596 18.5527 7.67773 18.5527ZM8.64453 10.0664C8.28646 10.0664 7.98047 9.94271 7.72656 9.69531C7.47917 9.44141 7.35547 9.13542 7.35547 8.77734C7.35547 8.41927 7.47917 8.11654 7.72656 7.86914C7.98047 7.61523 8.28646 7.48828 8.64453 7.48828C8.99609 7.48828 9.29883 7.61523 9.55273 7.86914C9.80664 8.11654 9.93359 8.41927 9.93359 8.77734C9.93359 9.13542 9.80664 9.44141 9.55273 9.69531C9.29883 9.94922 8.99609 10.0729 8.64453 10.0664ZM15.9492 10.0664C15.5977 10.0664 15.2949 9.94271 15.041 9.69531C14.7871 9.44141 14.6602 9.13542 14.6602 8.77734C14.6602 8.41927 14.7871 8.11654 15.041 7.86914C15.2949 7.61523 15.5977 7.48828 15.9492 7.48828C16.3008 7.48828 16.6035 7.61523 16.8574 7.86914C17.1113 8.11654 17.2383 8.41927 17.2383 8.77734C17.2383 9.13542 17.1113 9.44141 16.8574 9.69531C16.6035 9.94922 16.3008 10.0729 15.9492 10.0664ZM12.2969 13.748C11.9388 13.748 11.6328 13.6211 11.3789 13.3672C11.1315 13.1068 11.0078 12.7943 11.0078 12.4297C11.0078 12.0781 11.1315 11.7786 11.3789 11.5312C11.6328 11.2773 11.9388 11.1504 12.2969 11.1504C12.6484 11.1504 12.9512 11.2773 13.2051 11.5312C13.459 11.7786 13.5859 12.0781 13.5859 12.4297C13.5859 12.7943 13.459 13.1068 13.2051 13.3672C12.9512 13.6211 12.6484 13.748 12.2969 13.748ZM8.64453 17.4004C8.28646 17.4004 7.98047 17.2702 7.72656 17.0098C7.47917 16.7559 7.35547 16.4531 7.35547 16.1016C7.35547 15.75 7.47917 15.4473 7.72656 15.1934C7.98047 14.9395 8.28646 14.8125 8.64453 14.8125C8.99609 14.8125 9.29883 14.9395 9.55273 15.1934C9.80664 15.4473 9.93359 15.75 9.93359 16.1016C9.93359 16.4531 9.80664 16.7559 9.55273 17.0098C9.29883 17.2702 8.99609 17.4004 8.64453 17.4004ZM15.9492 17.4004C15.5977 17.4004 15.2949 17.2702 15.041 17.0098C14.7936 16.7559 14.6699 16.4531 14.6699 16.1016C14.6699 15.75 14.7936 15.4473 15.041 15.1934C15.2949 14.9395 15.5977 14.8125 15.9492 14.8125C16.3008 14.8125 16.6035 14.9395 16.8574 15.1934C17.1113 15.4473 17.2383 15.75 17.2383 16.1016C17.2383 16.4531 17.1113 16.7559 16.8574 17.0098C16.6035 17.2702 16.3008 17.4004 15.9492 17.4004Z" fill="#474EFF"/>
</svg>
