<svg width="22" height="20" viewBox="0 0 22 20" fill="none" xmlns="http://www.w3.org/2000/svg">
<path d="M4.61523 19.9102C4.31576 19.9102 4.08464 19.8385 3.92188 19.6953C3.76562 19.5586 3.68424 19.3828 3.67773 19.168C3.67773 18.9596 3.75911 18.7513 3.92188 18.543C4.0651 18.3672 4.23112 18.1426 4.41992 17.8691C4.60872 17.6022 4.80078 17.319 4.99609 17.0195C5.19792 16.7201 5.36719 16.4368 5.50391 16.1699C4.53385 15.7207 3.68424 15.138 2.95508 14.4219C2.23242 13.6992 1.66602 12.8854 1.25586 11.9805C0.852214 11.0755 0.650391 10.1217 0.650391 9.11914C0.650391 7.9668 0.917318 6.88607 1.45117 5.87695C1.99154 4.86133 2.73698 3.97266 3.6875 3.21094C4.63802 2.44271 5.74154 1.84375 6.99805 1.41406C8.26107 0.977865 9.61198 0.759766 11.0508 0.759766C12.4961 0.759766 13.847 0.977865 15.1035 1.41406C16.3665 1.84375 17.4733 2.44271 18.4238 3.21094C19.3743 3.97266 20.1165 4.86133 20.6504 5.87695C21.1908 6.88607 21.4609 7.9668 21.4609 9.11914C21.4609 10.1022 21.2721 11.0267 20.8945 11.8926C20.5169 12.7585 19.9863 13.543 19.3027 14.2461C18.6191 14.9427 17.8053 15.5384 16.8613 16.0332C15.9173 16.528 14.8789 16.8958 13.7461 17.1367C12.6133 17.3841 11.4154 17.485 10.1523 17.4395C9.53385 17.8691 8.87305 18.2728 8.16992 18.6504C7.4668 19.028 6.79948 19.3307 6.16797 19.5586C5.53646 19.793 5.01888 19.9102 4.61523 19.9102ZM5.47461 18.5137C5.74805 18.416 6.09635 18.2533 6.51953 18.0254C6.94922 17.804 7.39844 17.5469 7.86719 17.2539C8.33594 16.9674 8.76888 16.6875 9.16602 16.4141C9.32878 16.2904 9.48503 16.1992 9.63477 16.1406C9.78451 16.082 9.94727 16.0527 10.123 16.0527C10.3184 16.0658 10.4941 16.0755 10.6504 16.082C10.8066 16.0885 10.9401 16.0918 11.0508 16.0918C12.3138 16.0918 13.4889 15.9128 14.5762 15.5547C15.6634 15.1901 16.6172 14.6888 17.4375 14.0508C18.2643 13.4062 18.9089 12.6641 19.3711 11.8242C19.8333 10.9779 20.0645 10.0762 20.0645 9.11914C20.0645 8.1556 19.8333 7.25391 19.3711 6.41406C18.9089 5.57422 18.2643 4.83529 17.4375 4.19727C16.6172 3.55273 15.6634 3.05143 14.5762 2.69336C13.4889 2.32878 12.3138 2.14648 11.0508 2.14648C9.80078 2.14648 8.62891 2.32878 7.53516 2.69336C6.44792 3.05143 5.49089 3.55273 4.66406 4.19727C3.84375 4.83529 3.19922 5.57422 2.73047 6.41406C2.26823 7.25391 2.03711 8.1556 2.03711 9.11914C2.03711 9.95247 2.2194 10.7467 2.58398 11.502C2.94857 12.2572 3.47266 12.9473 4.15625 13.5723C4.83984 14.1908 5.66667 14.7246 6.63672 15.1738C6.89714 15.2975 7.05013 15.4538 7.0957 15.6426C7.14128 15.8249 7.10547 16.0234 6.98828 16.2383C6.82552 16.5508 6.58789 16.9154 6.27539 17.332C5.96289 17.7552 5.67969 18.1198 5.42578 18.4258C5.39974 18.4583 5.39323 18.4844 5.40625 18.5039C5.41927 18.5234 5.44206 18.5267 5.47461 18.5137Z" fill="#BDBDBD"/>
</svg>
