<svg width="17" height="18" viewBox="0 0 17 18" fill="none" xmlns="http://www.w3.org/2000/svg">
<path d="M2.51172 17.8359C1.07292 17.8359 0.353516 17.3607 0.353516 16.4102C0.353516 15.8047 0.535807 15.1634 0.900391 14.4863C1.26497 13.8027 1.79557 13.1615 2.49219 12.5625C3.1888 11.957 4.0319 11.4655 5.02148 11.0879C6.01107 10.7038 7.13086 10.5117 8.38086 10.5117C9.61784 10.5117 10.7311 10.7038 11.7207 11.0879C12.7103 11.4655 13.5534 11.957 14.25 12.5625C14.9466 13.1615 15.4772 13.8027 15.8418 14.4863C16.2129 15.1634 16.3984 15.8047 16.3984 16.4102C16.3984 17.3607 15.679 17.8359 14.2402 17.8359H2.51172ZM2.13086 16.5664H14.6211C14.7773 16.5664 14.888 16.5404 14.9531 16.4883C15.0182 16.4427 15.0508 16.3646 15.0508 16.2539C15.0508 15.8503 14.901 15.3945 14.6016 14.8867C14.3086 14.3789 13.8789 13.8874 13.3125 13.4121C12.7461 12.9368 12.0462 12.5462 11.2129 12.2402C10.3861 11.9342 9.44206 11.7812 8.38086 11.7812C7.30664 11.7812 6.35612 11.9342 5.5293 12.2402C4.70247 12.5462 4.0026 12.9368 3.42969 13.4121C2.86328 13.8874 2.43359 14.3789 2.14062 14.8867C1.85417 15.3945 1.71094 15.8503 1.71094 16.2539C1.71094 16.3646 1.74023 16.4427 1.79883 16.4883C1.86393 16.5404 1.97461 16.5664 2.13086 16.5664ZM8.38086 9.32031C7.6582 9.32031 6.9974 9.12826 6.39844 8.74414C5.79948 8.36003 5.32422 7.8457 4.97266 7.20117C4.62109 6.55013 4.44531 5.82747 4.44531 5.0332C4.44531 4.26497 4.62109 3.56185 4.97266 2.92383C5.33073 2.28581 5.80599 1.77799 6.39844 1.40039C6.9974 1.02279 7.6582 0.833984 8.38086 0.833984C9.11003 0.833984 9.77409 1.01953 10.373 1.39062C10.972 1.76172 11.4473 2.26628 11.7988 2.9043C12.1504 3.53581 12.3262 4.24219 12.3262 5.02344C12.3262 5.8112 12.1471 6.5306 11.7891 7.18164C11.4375 7.83268 10.9622 8.35352 10.3633 8.74414C9.76432 9.12826 9.10352 9.32031 8.38086 9.32031ZM8.38086 8.06055C8.85612 8.06055 9.28906 7.92708 9.67969 7.66016C10.0703 7.38672 10.3828 7.02214 10.6172 6.56641C10.8581 6.10417 10.9785 5.58984 10.9785 5.02344C10.9785 4.47005 10.8613 3.97526 10.627 3.53906C10.3926 3.09635 10.0801 2.74805 9.68945 2.49414C9.29883 2.23372 8.86263 2.10352 8.38086 2.10352C7.9056 2.10352 7.4694 2.23372 7.07227 2.49414C6.68164 2.75456 6.36914 3.10612 6.13477 3.54883C5.9069 3.99154 5.79297 4.48633 5.79297 5.0332C5.79297 5.59961 5.91016 6.11068 6.14453 6.56641C6.37891 7.02214 6.69141 7.38672 7.08203 7.66016C7.47917 7.92708 7.91211 8.06055 8.38086 8.06055Z" fill="#BDBDBD"/>
</svg>
